<svg width="178" height="73" viewBox="0 0 178 73" fill="none" xmlns="http://www.w3.org/2000/svg">
<g clip-path="url(#clip0_2802_2247)">
<path d="M8.9417 16.5337C8.02132 14.4448 6.56619 12.6209 4.74599 11.2699L3.68164 10.4801L12.217 6.64014L12.0833 7.97036C11.8571 10.2463 12.2222 12.5534 13.1426 14.6474L18.7728 27.4248V38.8564L8.9417 16.5337Z" fill="#E10600"/>
<path d="M52.9192 14.1901C53.7008 12.2208 53.999 10.0695 53.7934 7.97029L53.6597 6.64526L62.1951 10.4852L61.1307 11.2751C59.4236 12.5377 58.0353 14.2265 57.1098 16.1491L44.8929 43.8603C43.1293 44.2967 41.3039 44.5981 39.458 44.7592L52.9141 14.1953L52.9192 14.1901Z" fill="#E10600"/>
<path d="M28.2334 60.3218V53.7383C28.9944 53.8734 29.7605 53.9929 30.5215 54.0864L32.9381 59.5632L35.2005 54.4294C35.6016 54.4398 35.9512 54.445 36.2803 54.445C37.6223 54.445 38.9746 54.3878 40.3063 54.2735L32.9381 71L28.2334 60.3218Z" fill="#E10600"/>
<path d="M17.1582 17.7184C23.0713 14.7202 29.5037 13.1978 36.2754 13.1978C40.9339 13.1978 45.4638 13.9252 49.7521 15.3594L47.865 19.641C44.1681 18.4511 40.2655 17.8535 36.2754 17.8535C30.167 17.8535 24.367 19.2461 19.035 21.9845L17.1582 17.7236V17.7184Z" fill="#E10600"/>
<path d="M61.7426 28.5941C60.0972 26.2195 58.205 24.8061 57.1972 24.167L56.4517 23.663L58.3438 19.3657C60.3183 20.5764 62.2208 21.9534 63.9947 23.4759L61.7374 28.5993L61.7426 28.5941Z" fill="#E10600"/>
<path d="M36.2803 51.9925C36.2032 51.9925 36.1209 51.9925 36.0438 51.9925H35.8844C35.1954 51.9821 34.5064 51.9613 33.8277 51.9249C33.2158 51.8885 32.6091 51.847 32.028 51.7898C31.2928 51.7171 30.5524 51.6287 29.8222 51.5196C29.2926 51.4417 28.7579 51.3481 28.2334 51.2494V46.5001C28.655 46.5936 29.0869 46.6768 29.5137 46.7495C31.6424 47.1288 33.8431 47.3263 36.0592 47.3367H36.1518C36.1929 47.3367 36.234 47.3367 36.2803 47.3367C36.9025 47.3367 37.5298 47.3211 38.1931 47.2899C40.2138 47.1912 42.2242 46.9366 44.1627 46.5313C44.9648 46.365 45.7618 46.1676 46.5279 45.9545C49.7158 45.0608 52.8009 43.7305 55.6958 42.0002L55.7112 41.9898C56.7293 41.3923 58.6369 40.0724 60.3748 37.7134L62.632 42.842C57.0275 47.2639 50.6979 50.1218 43.8233 51.3377C43.0829 51.4677 42.3271 51.582 41.5918 51.6703C39.8487 51.8833 38.0645 51.9925 36.2803 51.9925Z" fill="#E10600"/>
<path d="M18.7781 48.246C8.28367 43.4707 2.84365 35.7336 2.61741 35.4063L1.96954 34.471C1.49649 33.7851 0.930895 33.2187 0.293312 32.777L0.283028 32.7666L0.00537109 32.5951L0.28817 32.4237H0.293312C0.930895 31.982 1.49135 31.4104 1.9644 30.7297L2.61741 29.7892C2.85393 29.4463 5.00834 26.4117 9.13207 22.9978L11.0808 27.4249C8.00087 30.1425 6.40177 32.4289 6.38635 32.4548L6.28351 32.6055L6.38635 32.751C6.42748 32.8082 10.3147 38.3473 17.8011 42.551C18.0274 42.6757 18.2588 42.8004 18.4901 42.9251C18.5878 42.9771 18.6804 43.0291 18.7781 43.081V48.2564V48.246Z" fill="#E10600"/>
<path d="M21.2048 9.69041C21.2048 7.40409 20.6084 5.14375 19.4875 3.15362L18.8345 1.99487H45.6541V9.04089L44.5075 8.38097C42.5433 7.24821 40.3066 6.64545 38.0391 6.64545H25.8016V11.9507C24.2385 12.3197 22.6908 12.7769 21.1997 13.3121V9.69041H21.2048Z" fill="#E10600"/>
<path d="M19.4875 60.4362C19.7806 59.9165 20.0428 59.3709 20.269 58.8046C20.8912 57.2353 21.2048 55.5881 21.2048 53.9046V23.6368C22.696 22.9302 24.2436 22.3326 25.8068 21.8494V30.5426H31.797C34.0593 30.5426 36.296 29.945 38.2653 28.807L39.412 28.1471V37.5886L38.2653 36.9287C36.296 35.7959 34.0645 35.1931 31.797 35.1931H25.8068V61.5949H18.8345L19.4875 60.4362Z" fill="#E10600"/>
<path d="M39.7412 61.5948L41.9522 56.5701C43.1399 56.2792 44.2814 55.8219 45.3406 55.2087L46.4873 54.5488V61.5948H39.7412Z" fill="#E10600"/>
</g>
<path d="M112.06 40.6467C112.06 32.9716 117.856 27.625 125.947 27.625C132.813 27.625 137.125 31.6334 137.125 37.3533C137.125 45.0284 131.329 50.375 123.238 50.375C116.372 50.375 112.06 46.3666 112.06 40.6467ZM129.634 37.7867C129.634 35.2684 128.027 33.5601 125.319 33.5601C121.664 33.5601 119.555 36.6383 119.555 40.2101C119.555 42.7284 121.161 44.4368 123.87 44.4368C127.524 44.4368 129.634 41.3585 129.634 37.7867Z" fill="white"/>
<path d="M149.377 28.1217L146.133 44.19H156.083L154.919 49.8783H137.535L141.943 28.1217H149.377Z" fill="white"/>
<path d="M162.95 33.81H156.493L157.657 28.1217H178L176.836 33.81H170.38L167.136 49.8783H159.705L162.95 33.81Z" fill="white"/>
<path fill-rule="evenodd" clip-rule="evenodd" d="M166.642 49.2835L168.386 40.6372C166.348 40.7954 164.248 40.9283 162.1 41.0327L160.433 49.2835H166.642Z" fill="white"/>
<path fill-rule="evenodd" clip-rule="evenodd" d="M139.92 41.1307L138.266 49.2867H154.423L155.346 44.7848H145.399L146.101 41.2984C144.004 41.2668 141.943 41.2098 139.92 41.1307Z" fill="white"/>
<path fill-rule="evenodd" clip-rule="evenodd" d="M123.238 49.7834C125.646 49.7834 127.983 49.3183 130.121 48.2047C132.105 47.1702 133.685 45.7181 134.827 43.8135C135.375 42.8992 135.779 41.9406 136.054 40.9472C133.919 40.827 131.836 40.6783 129.816 40.5075C129.723 40.7954 129.614 41.0801 129.486 41.3585C128.996 42.4405 128.268 43.3453 127.284 44.0255C126.268 44.7278 125.104 45.0347 123.87 45.0347C122.517 45.0347 121.244 44.674 120.276 43.7091C119.327 42.76 118.952 41.5325 118.952 40.2164C118.952 39.8969 118.968 39.5774 119 39.261C116.833 38.9383 114.785 38.584 112.871 38.198C112.73 38.9984 112.663 39.8178 112.663 40.6499C112.663 42.3424 113.044 43.9559 113.945 45.4049C114.833 46.8348 116.08 47.8788 117.603 48.616C119.359 49.467 121.299 49.7834 123.242 49.7834" fill="white"/>
<path fill-rule="evenodd" clip-rule="evenodd" d="M93.6696 39.6027C90.2139 32.2471 86.0883 31.1399 85.0144 22C68.1721 36.5402 99.6289 35.3697 93.9613 53.8582L101.738 39.6027H93.6696Z" fill="white"/>
<path fill-rule="evenodd" clip-rule="evenodd" d="M106.21 37.8405H94.3139L103.008 22H111.333L104.78 34.0251L112.31 34.0315L94.1152 56L106.21 37.8405Z" fill="white"/>
<defs>
<clipPath id="clip0_2802_2247">
<rect width="64" height="69" fill="white" transform="translate(0 2)"/>
</clipPath>
</defs>
</svg>
