<svg width="149" height="70" viewBox="0 0 149 70" fill="none" xmlns="http://www.w3.org/2000/svg">
<g clip-path="url(#clip0_807_18662)">
<path d="M26.0005 0L27.4461 4.22429H32.124L28.3405 6.8351L29.7861 11.0594L26.0005 8.44858L22.217 11.0594L23.6626 6.8351L19.877 4.22429H24.5549L26.0005 0Z" fill="#FED63F"/>
<path d="M24.8291 69.4095C20.744 67.3497 17.1102 64.9443 14.0297 62.2644C10.9243 59.5627 8.29933 56.5076 6.22349 53.1838C4.14973 49.862 2.57517 46.1887 1.54141 42.2646C0.518047 38.3741 -0.00195312 34.134 -0.00195312 29.6609V27.5952L2.15501 27.3127C11.0324 26.1515 18.2043 22.3182 24.0761 15.5957L25.998 13.3957L27.92 15.5957C33.7939 22.3182 40.9636 26.1515 49.8411 27.3127L51.998 27.5952V29.6609C51.998 34.134 51.478 38.3761 50.4547 42.2646C49.4209 46.1887 47.8464 49.864 45.7747 53.1838C43.7009 56.5076 41.0739 59.5627 37.9684 62.2663C34.888 64.9463 31.2563 67.3517 27.1712 69.4115L26.0001 70.002L24.8291 69.4115V69.4095Z" fill="white"/>
<path d="M49.7743 27.7946C40.7638 26.6156 33.4858 22.727 27.5266 15.9058L25.9999 14.158L24.4732 15.9058C18.514 22.727 11.2361 26.6156 2.22551 27.7946L0.513672 28.0197V29.6609C0.513672 34.0945 1.02743 38.2951 2.04247 42.1461C3.06375 46.0248 4.61959 49.6547 6.66631 52.935C8.71511 56.2172 11.3089 59.2349 14.3769 61.9049C17.4241 64.5572 21.0225 66.9369 25.0681 68.979L25.9978 69.449L26.9276 68.979C30.9732 66.9369 34.5716 64.5572 37.6188 61.9049C40.6868 59.2349 43.2806 56.2172 45.3294 52.935C47.3761 49.6547 48.9319 46.0248 49.9532 42.1461C50.9682 38.2951 51.482 34.0945 51.482 29.6609V28.0197L49.7702 27.7946H49.7743Z" fill="black"/>
<path d="M25.6546 67.9323C21.7005 65.9377 18.1894 63.6172 15.2213 61.032C12.2448 58.441 9.72799 55.5142 7.74159 52.3307C5.75519 49.1491 4.24511 45.6259 3.25503 41.8578C2.26495 38.1016 1.76367 33.9958 1.76367 29.6589V29.0506L2.39807 28.9677C11.7331 27.7452 19.2669 23.7204 25.4362 16.6602L26.0019 16.0124L26.5677 16.6602C32.7349 23.7204 40.2707 27.7452 49.6058 28.9677L50.2402 29.0506V29.6589C50.2402 33.9958 49.7389 38.0996 48.7488 41.8578C47.7566 45.6259 46.2466 49.1491 44.2622 52.3307C42.2758 55.5122 39.759 58.441 36.7826 61.032C33.8123 63.6172 30.3013 65.9396 26.3472 67.9323L26.0019 68.1061L25.6566 67.9323H25.6546Z" fill="white"/>
<path d="M26 17.1065C20.2363 23.7026 12.7691 28.314 2.49805 29.6589C2.49805 34.4342 3.10333 38.8501 4.30973 42.9085C4.32429 42.9578 4.33885 43.0072 4.35341 43.0546H47.6444C47.659 43.0052 47.6736 42.9578 47.6881 42.9085C48.8945 38.8501 49.4998 34.4342 49.4998 29.6589C39.2288 28.314 31.7595 23.7026 25.9979 17.1065" fill="#E10600"/>
<path d="M4.39512 43.1909C7.58168 53.6143 14.7826 61.6561 26.0001 67.3142C37.2175 61.6561 44.4185 53.6143 47.605 43.1909C47.6196 43.1454 47.6321 43.1 47.6466 43.0546H4.35352C4.36808 43.1 4.38056 43.1454 4.39512 43.1909Z" fill="black"/>
<path d="M12.6966 34.687C12.1849 33.5988 11.3799 32.6489 10.369 31.9438L9.77832 31.5331L14.5124 29.5325L14.4396 30.2237C14.3148 31.4086 14.5166 32.6114 15.0282 33.7015L18.1503 40.3569V46.3112L12.6986 34.685L12.6966 34.687Z" fill="white"/>
<path d="M37.078 33.4665C37.5107 32.4395 37.6771 31.3198 37.5627 30.2257L37.4899 29.5345L42.2239 31.535L41.6332 31.9458C40.6868 32.6035 39.9172 33.4823 39.4055 34.4836L32.631 48.92C31.6534 49.1471 30.6404 49.3051 29.6191 49.3881L37.078 33.4665Z" fill="white"/>
<path d="M23.3916 57.4989V54.0705C23.8138 54.1416 24.2382 54.2028 24.6625 54.2522L25.9999 57.1059L27.2542 54.4319C27.4767 54.4379 27.6702 54.4398 27.8532 54.4398C28.5978 54.4398 29.3466 54.4102 30.085 54.349L25.9999 63.0622L23.3916 57.4989Z" fill="white"/>
<path d="M17.252 35.3051C20.53 33.743 24.0952 32.9491 27.8537 32.9491C30.4371 32.9491 32.9497 33.3282 35.3272 34.0748L34.2809 36.3044C32.23 35.6863 30.0689 35.3723 27.8537 35.3723C24.4675 35.3723 21.2518 36.097 18.294 37.5249L17.254 35.3051H17.252Z" fill="white"/>
<path d="M41.9699 40.9711C41.0568 39.7328 40.0085 38.9982 39.449 38.6644L39.0371 38.4018L40.0875 36.1622C41.1837 36.7922 42.2362 37.5111 43.2221 38.303L41.9699 40.9711Z" fill="white"/>
<path d="M27.8532 53.1601C27.8095 53.1601 27.7658 53.1601 27.7222 53.1601H27.6348C27.2542 53.1562 26.8694 53.1443 26.4929 53.1246C26.1538 53.1068 25.819 53.0831 25.4945 53.0535C25.0868 53.0159 24.677 52.9686 24.2714 52.9113C23.9782 52.8698 23.6828 52.8224 23.3916 52.7711V50.2985C23.6266 50.3459 23.8658 50.3893 24.1009 50.4288C25.2802 50.6263 26.5012 50.729 27.7305 50.7369H27.7825C27.8054 50.7369 27.8282 50.7369 27.8532 50.7369C28.1985 50.7369 28.5458 50.729 28.9119 50.7132C30.033 50.6619 31.1458 50.5296 32.2212 50.3182C32.6663 50.2294 33.1073 50.1287 33.5337 50.0181C35.3038 49.554 37.0135 48.8608 38.6151 47.9583L38.6234 47.9543C39.1892 47.6442 40.2479 46.955 41.2089 45.7266L42.461 48.3967C39.3535 50.7014 35.8446 52.1904 32.034 52.8224C31.6222 52.8915 31.2062 52.9488 30.7964 52.9962C29.8313 53.1068 28.8412 53.1621 27.8532 53.1621" fill="white"/>
<path d="M18.1476 51.2089C12.3298 48.7225 9.31382 44.6918 9.18694 44.52L8.8271 44.0322C8.56502 43.6767 8.25302 43.3785 7.89942 43.1494L7.89318 43.1454L7.73926 43.0566L7.89734 42.9657H7.9015C8.2551 42.7347 8.56502 42.4384 8.82918 42.0829L9.1911 41.5912C9.32214 41.4135 10.5181 39.8316 12.8041 38.0542L13.8857 40.3608C12.178 41.7768 11.2919 42.9677 11.2836 42.9795L11.2274 43.0566L11.2836 43.1336C11.3044 43.1632 13.4613 46.0505 17.613 48.2387C17.7378 48.3038 17.8647 48.369 17.9937 48.4342C18.0477 48.4599 18.0997 48.4875 18.1538 48.5132V51.2089H18.1476Z" fill="white"/>
<path d="M19.4942 31.1243C19.4942 29.9314 19.1656 28.7544 18.5416 27.7196L18.1797 27.1152H33.0517V30.7866L32.4152 30.4429C31.3253 29.8524 30.0856 29.5384 28.8293 29.5384H22.0443V32.3033C21.177 32.4968 20.32 32.7338 19.4922 33.0103V31.1243H19.4942Z" fill="white"/>
<path d="M18.5416 57.5582C18.7038 57.2876 18.8494 57.0013 18.9742 56.707C19.3195 55.8894 19.4942 55.0303 19.4942 54.1535V38.386C20.3221 38.0186 21.179 37.7046 22.0464 37.4558V41.9842H25.3682C26.6224 41.9842 27.8621 41.6722 28.9541 41.0797L29.5906 40.7341V45.6536L28.9541 45.3079C27.8642 44.7175 26.6245 44.4034 25.3682 44.4034H22.0464V58.1586H18.1797L18.5437 57.5562L18.5416 57.5582Z" fill="white"/>
<path d="M29.7715 58.1605L30.9987 55.5438C31.658 55.3917 32.2883 55.1528 32.8769 54.8348L33.5134 54.4912V58.1625H29.7736L29.7715 58.1605Z" fill="white"/>
</g>
<line x1="64.4" y1="15" x2="64.4" y2="55" stroke="#CDCCCC" stroke-width="0.8"/>
<g clip-path="url(#clip1_807_18662)">
<path d="M99.5781 36.2265C99.5781 30.5098 103.841 26.5275 109.791 26.5275C114.841 26.5275 118.012 29.513 118.012 33.7735C118.012 39.4901 113.75 43.4725 107.799 43.4725C102.749 43.4725 99.5781 40.4869 99.5781 36.2265ZM112.503 34.0963C112.503 32.2206 111.321 30.9481 109.329 30.9481C106.642 30.9481 105.09 33.2409 105.09 35.9013C105.09 37.777 106.271 39.0495 108.264 39.0495C110.951 39.0495 112.503 36.7567 112.503 34.0963Z" fill="black"/>
<path d="M121.559 26.8974H127.024L124.638 38.8657H131.956L131.1 43.1025H118.314L121.556 26.8974H121.559Z" fill="black"/>
<path d="M137.006 31.1343H132.258L133.114 26.8974H148.075L147.219 31.1343H142.471L140.085 43.1025H134.62L137.006 31.1343Z" fill="black"/>
<path fill-rule="evenodd" clip-rule="evenodd" d="M135.158 42.6595H139.722L141.005 36.2194C139.505 36.3372 137.961 36.4362 136.381 36.514L135.155 42.6595H135.158Z" fill="black"/>
<path fill-rule="evenodd" clip-rule="evenodd" d="M120.069 36.587L118.853 42.6619H130.735L131.414 39.3087H124.098L124.615 36.7119C123.073 36.6884 121.557 36.6459 120.069 36.587Z" fill="black"/>
<path fill-rule="evenodd" clip-rule="evenodd" d="M107.799 43.0318C109.57 43.0318 111.289 42.6854 112.861 41.856C114.32 41.0854 115.483 40.0038 116.322 38.5853C116.725 37.9043 117.022 37.1903 117.225 36.4503C115.655 36.3608 114.122 36.2501 112.637 36.1228C112.569 36.3372 112.489 36.5493 112.394 36.7567C112.034 37.5626 111.498 38.2365 110.775 38.7431C110.027 39.2663 109.171 39.4948 108.264 39.4948C107.269 39.4948 106.333 39.2262 105.621 38.5075C104.923 37.8006 104.647 36.8863 104.647 35.906C104.647 35.668 104.659 35.43 104.683 35.1944C103.089 34.954 101.582 34.6901 100.175 34.4026C100.071 34.9988 100.021 35.6091 100.021 36.2288C100.021 37.4895 100.302 38.6913 100.965 39.7705C101.618 40.8356 102.535 41.6133 103.655 42.1623C104.947 42.7962 106.373 43.0318 107.802 43.0318" fill="black"/>
<path fill-rule="evenodd" clip-rule="evenodd" d="M86.0515 35.4489C83.51 29.9702 80.4758 29.1455 79.686 22.3378C67.299 33.1679 90.4344 32.296 86.2661 46.0669L91.9857 35.4489H86.0515Z" fill="black"/>
<path fill-rule="evenodd" clip-rule="evenodd" d="M95.2762 34.1364H86.527L92.9209 22.3378H99.0436L94.2247 31.2945L99.7627 31.2992L86.3809 47.6622L95.2762 34.1364Z" fill="black"/>
</g>
<defs>
<clipPath id="clip0_807_18662">
<rect width="52" height="70" fill="white"/>
</clipPath>
<clipPath id="clip1_807_18662">
<rect width="72.0772" height="25.3244" fill="white" transform="translate(76 22.3378)"/>
</clipPath>
</defs>
</svg>
